HIERARCHY
ROOT mixamorig:Hips
{
	OFFSET 0.000000 97.439201 0.000000
	CHANNELS 6 Xposition Yposition Zposition Zrotation Yrotation Xrotation 
	JOINT mixamorig:Spine
	{
		OFFSET 0.000000 10.246803 -1.182900
		CHANNELS 3 Zrotation Yrotation Xrotation
		JOINT mixamorig:Spine1
		{
			OFFSET 0.000000 11.954597 -1.380086
			CHANNELS 3 Zrotation Yrotation Xrotation
			JOINT mixamorig:Spine2
			{
				OFFSET 0.000000 13.662361 -1.577237
				CHANNELS 3 Zrotation Yrotation Xrotation
				JOINT mixamorig:Neck
				{
					OFFSET 0.000000 15.370239 -1.774399
					CHANNELS 3 Zrotation Yrotation Xrotation
					JOINT mixamorig:Head
					{
						OFFSET 0.000000 6.121704 2.117600
						CHANNELS 3 Zrotation Yrotation Xrotation
						JOINT mixamorig:HeadTop_End
						{
							OFFSET 0.000000 23.480103 8.122100
							CHANNELS 3 Zrotation Yrotation Xrotation
							End Site
							{
								OFFSET 0.000000 0.000000 0.000000
							}
						}
					}
				}
				JOINT mixamorig:LeftShoulder
				{
					OFFSET 6.584100 13.564301 -1.766640
					CHANNELS 3 Zrotation Yrotation Xrotation
					JOINT mixamorig:LeftArm
					{
						OFFSET 13.322093 -3.531372 0.015528
						CHANNELS 3 Zrotation Yrotation Xrotation
						JOINT mixamorig:LeftForeArm
						{
							OFFSET 25.861839 0.000000 0.000001
							CHANNELS 3 Zrotation Yrotation Xrotation
							JOINT mixamorig:LeftHand
							{
								OFFSET 24.066311 0.000000 0.000001
								CHANNELS 3 Zrotation Yrotation Xrotation
								JOINT mixamorig:LeftHandThumb1
								{
									OFFSET 3.138794 -1.265854 2.647181
									CHANNELS 3 Zrotation Yrotation Xrotation
									JOINT mixamorig:LeftHandThumb2
									{
										OFFSET 2.662651 -1.537277 1.537284
										CHANNELS 3 Zrotation Yrotation Xrotation
										JOINT mixamorig:LeftHandThumb3
										{
											OFFSET 2.570145 -1.483871 1.483872
											CHANNELS 3 Zrotation Yrotation Xrotation
											JOINT mixamorig:LeftHandThumb4
											{
												OFFSET 2.200981 -1.270737 1.270736
												CHANNELS 3 Zrotation Yrotation Xrotation
												End Site
												{
													OFFSET 0.000000 0.000000 0.000000
												}
											}
										}
									}
								}
								JOINT mixamorig:LeftHandIndex1
								{
									OFFSET 10.405411 -0.300232 2.648106
									CHANNELS 3 Zrotation Yrotation Xrotation
									JOINT mixamorig:LeftHandIndex2
									{
										OFFSET 3.184044 0.000000 0.000000
										CHANNELS 3 Zrotation Yrotation Xrotation
										JOINT mixamorig:LeftHandIndex3
										{
											OFFSET 2.887520 0.000000 0.000000
											CHANNELS 3 Zrotation Yrotation Xrotation
											JOINT mixamorig:LeftHandIndex4
											{
												OFFSET 2.475807 0.000000 0.000000
												CHANNELS 3 Zrotation Yrotation Xrotation
												End Site
												{
													OFFSET 0.000000 0.000000 0.000000
												}
											}
										}
									}
								}
								JOINT mixamorig:LeftHandMiddle1
								{
									OFFSET 10.112617 0.000000 0.000000
									CHANNELS 3 Zrotation Yrotation Xrotation
									JOINT mixamorig:LeftHandMiddle2
									{
										OFFSET 3.478561 0.000000 0.000000
										CHANNELS 3 Zrotation Yrotation Xrotation
										JOINT mixamorig:LeftHandMiddle3
										{
											OFFSET 3.196815 0.000000 0.000000
											CHANNELS 3 Zrotation Yrotation Xrotation
											JOINT mixamorig:LeftHandMiddle4
											{
												OFFSET 2.838127 0.000000 0.000000
												CHANNELS 3 Zrotation Yrotation Xrotation
												End Site
												{
													OFFSET 0.000000 0.000000 0.000000
												}
											}
										}
									}
								}
								JOINT mixamorig:LeftHandRing1
								{
									OFFSET 9.766037 0.002869 -2.231968
									CHANNELS 3 Zrotation Yrotation Xrotation
									JOINT mixamorig:LeftHandRing2
									{
										OFFSET 2.912598 0.000000 0.000000
										CHANNELS 3 Zrotation Yrotation Xrotation
										JOINT mixamorig:LeftHandRing3
										{
											OFFSET 2.743797 0.000000 0.000000
											CHANNELS 3 Zrotation Yrotation Xrotation
											JOINT mixamorig:LeftHandRing4
											{
												OFFSET 2.426300 0.000000 0.000000
												CHANNELS 3 Zrotation Yrotation Xrotation
												End Site
												{
													OFFSET 0.000000 0.000000 0.000000
												}
											}
										}
									}
								}
								JOINT mixamorig:LeftHandPinky1
								{
									OFFSET 8.462975 -0.296494 -4.344542
									CHANNELS 3 Zrotation Yrotation Xrotation
									JOINT mixamorig:LeftHandPinky2
									{
										OFFSET 2.761932 0.000000 0.000000
										CHANNELS 3 Zrotation Yrotation Xrotation
										JOINT mixamorig:LeftHandPinky3
										{
											OFFSET 2.226311 0.000000 0.000000
											CHANNELS 3 Zrotation Yrotation Xrotation
											JOINT mixamorig:LeftHandPinky4
											{
												OFFSET 2.001915 0.000000 0.000000
												CHANNELS 3 Zrotation Yrotation Xrotation
												End Site
												{
													OFFSET 0.000000 0.000000 0.000000
												}
											}
										}
									}
								}
							}
						}
					}
				}
				JOINT mixamorig:RightShoulder
				{
					OFFSET -6.584100 13.564331 -1.782145
					CHANNELS 3 Zrotation Yrotation Xrotation
					JOINT mixamorig:RightArm
					{
						OFFSET -13.322087 -3.531387 -0.015528
						CHANNELS 3 Zrotation Yrotation Xrotation
						JOINT mixamorig:RightForeArm
						{
							OFFSET -25.995886 0.000000 -0.000000
							CHANNELS 3 Zrotation Yrotation Xrotation
							JOINT mixamorig:RightHand
							{
								OFFSET -23.930798 0.000000 -0.000000
								CHANNELS 3 Zrotation Yrotation Xrotation
								JOINT mixamorig:RightHandThumb1
								{
									OFFSET -3.103348 -1.214722 2.665987
									CHANNELS 3 Zrotation Yrotation Xrotation
									JOINT mixamorig:RightHandThumb2
									{
										OFFSET -2.644638 -1.526886 1.526883
										CHANNELS 3 Zrotation Yrotation Xrotation
										JOINT mixamorig:RightHandThumb3
										{
											OFFSET -2.548042 -1.471115 1.471114
											CHANNELS 3 Zrotation Yrotation Xrotation
											JOINT mixamorig:RightHandThumb4
											{
												OFFSET -2.086876 -1.204865 1.204859
												CHANNELS 3 Zrotation Yrotation Xrotation
												End Site
												{
													OFFSET 0.000000 0.000000 0.000000
												}
											}
										}
									}
								}
								JOINT mixamorig:RightHandIndex1
								{
									OFFSET -9.891205 -0.413467 2.629802
									CHANNELS 3 Zrotation Yrotation Xrotation
									JOINT mixamorig:RightHandIndex2
									{
										OFFSET -3.265656 0.000000 0.000000
										CHANNELS 3 Zrotation Yrotation Xrotation
										JOINT mixamorig:RightHandIndex3
										{
											OFFSET -3.106102 0.000000 0.000000
											CHANNELS 3 Zrotation Yrotation Xrotation
											JOINT mixamorig:RightHandIndex4
											{
												OFFSET -2.514259 0.000000 0.000000
												CHANNELS 3 Zrotation Yrotation Xrotation
												End Site
												{
													OFFSET 0.000000 0.000000 0.000000
												}
											}
										}
									}
								}
								JOINT mixamorig:RightHandMiddle1
								{
									OFFSET -10.108925 0.000000 0.000000
									CHANNELS 3 Zrotation Yrotation Xrotation
									JOINT mixamorig:RightHandMiddle2
									{
										OFFSET -3.489250 0.000000 0.000000
										CHANNELS 3 Zrotation Yrotation Xrotation
										JOINT mixamorig:RightHandMiddle3
										{
											OFFSET -3.236908 0.000000 0.000000
											CHANNELS 3 Zrotation Yrotation Xrotation
											JOINT mixamorig:RightHandMiddle4
											{
												OFFSET -2.756126 0.000000 0.000000
												CHANNELS 3 Zrotation Yrotation Xrotation
												End Site
												{
													OFFSET 0.000000 0.000000 0.000000
												}
											}
										}
									}
								}
								JOINT mixamorig:RightHandRing1
								{
									OFFSET -9.832733 -0.175018 -2.119855
									CHANNELS 3 Zrotation Yrotation Xrotation
									JOINT mixamorig:RightHandRing2
									{
										OFFSET -2.832802 0.000000 0.000000
										CHANNELS 3 Zrotation Yrotation Xrotation
										JOINT mixamorig:RightHandRing3
										{
											OFFSET -2.766335 0.000000 0.000000
											CHANNELS 3 Zrotation Yrotation Xrotation
											JOINT mixamorig:RightHandRing4
											{
												OFFSET -2.344864 0.000000 0.000000
												CHANNELS 3 Zrotation Yrotation Xrotation
												End Site
												{
													OFFSET 0.000000 0.000000 0.000000
												}
											}
										}
									}
								}
								JOINT mixamorig:RightHandPinky1
								{
									OFFSET -8.564178 -0.350037 -4.300325
									CHANNELS 3 Zrotation Yrotation Xrotation
									JOINT mixamorig:RightHandPinky2
									{
										OFFSET -2.646233 0.000000 0.000000
										CHANNELS 3 Zrotation Yrotation Xrotation
										JOINT mixamorig:RightHandPinky3
										{
											OFFSET -2.261864 0.000000 0.000000
											CHANNELS 3 Zrotation Yrotation Xrotation
											JOINT mixamorig:RightHandPinky4
											{
												OFFSET -1.954506 0.000000 0.000000
												CHANNELS 3 Zrotation Yrotation Xrotation
												End Site
												{
													OFFSET 0.000000 0.000000 0.000000
												}
											}
										}
									}
								}
							}
						}
					}
				}
			}
		}
	}
	JOINT mixamorig:LeftUpLeg
	{
		OFFSET 7.983700 -5.694298 -0.735200
		CHANNELS 3 Zrotation Yrotation Xrotation
		JOINT mixamorig:LeftLeg
		{
			OFFSET 1.208505 -42.761528 -3.138802
			CHANNELS 3 Zrotation Yrotation Xrotation
			JOINT mixamorig:LeftFoot
			{
				OFFSET -1.208506 -38.163300 -2.010041
				CHANNELS 3 Zrotation Yrotation Xrotation
				JOINT mixamorig:LeftToeBase
				{
					OFFSET 1.841840 -10.410353 14.836088
					CHANNELS 3 Zrotation Yrotation Xrotation
					JOINT mixamorig:LeftToe_End
					{
						OFFSET 0.820596 -0.120798 6.988551
						CHANNELS 3 Zrotation Yrotation Xrotation
						End Site
						{
							OFFSET 0.000000 0.000000 0.000000
						}
					}
				}
			}
		}
	}
	JOINT mixamorig:RightUpLeg
	{
		OFFSET -7.983700 -5.694298 -0.831100
		CHANNELS 3 Zrotation Yrotation Xrotation
		JOINT mixamorig:RightLeg
		{
			OFFSET -1.208402 -42.761509 -2.372174
			CHANNELS 3 Zrotation Yrotation Xrotation
			JOINT mixamorig:RightFoot
			{
				OFFSET 1.208405 -38.162746 -2.730814
				CHANNELS 3 Zrotation Yrotation Xrotation
				JOINT mixamorig:RightToeBase
				{
					OFFSET -1.842189 -10.413905 14.893202
					CHANNELS 3 Zrotation Yrotation Xrotation
					JOINT mixamorig:RightToe_End
					{
						OFFSET -0.820738 -0.122444 6.961618
						CHANNELS 3 Zrotation Yrotation Xrotation
						End Site
						{
							OFFSET 0.000000 0.000000 0.000000
						}
					}
				}
			}
		}
	}
}
MOTION
Frames: 6
Frame Time: 0.016667
0.092342 75.880920 1.553999 -7.539301 -2.351794 16.940044 -5.315166 14.608686 9.020477 0.078427 4.089145 2.867787 -0.096251 4.322434 2.846269 4.401234 -2.296917 -0.867055 12.261861 -7.727864 -8.690788 -0.000001 0.000000 0.000000 -15.142138 -0.991527 1.433143 -47.015283 16.717199 -28.633983 -0.000002 -10.721310 -0.000008 16.489604 -23.456328 8.559786 3.867450 -6.350650 -5.862579 5.424723 27.126312 9.673541 10.280386 -12.293852 -12.083077 -0.000002 0.000001 0.000002 -12.462133 -6.324633 -0.505542 -16.342792 1.651680 -0.237195 -16.786218 1.695205 -0.250133 0.000000 0.000000 -0.000001 -18.633566 -1.048923 -0.980519 -20.947910 2.098233 -0.387932 -22.997833 2.292747 -0.466480 -0.000001 -0.000001 0.000000 -26.157512 3.285133 -1.580808 -23.874328 2.375016 -0.502158 -25.860511 2.559326 -0.587700 0.000000 0.000000 0.000000 -33.184611 3.771928 -2.190695 -29.888669 2.923321 -0.780421 -29.880865 2.922620 -0.780014 0.000001 0.000001 0.000004 -5.678835 12.186491 1.618734 -52.354612 57.829957 -59.252633 -179.999126 85.290411 -179.999123 -5.166879 22.619270 14.066824 -3.354359 27.011590 -15.158972 -17.227402 -43.205797 19.025980 -14.469859 1.254599 -7.605363 -0.000002 -0.000000 -0.000001 13.849938 -4.785798 -0.633689 15.508045 -1.247758 -0.169907 15.503203 -1.247374 -0.169802 -0.000001 0.000002 0.000001 32.839541 -5.909642 -1.939609 34.414021 -2.636043 -0.816474 36.402835 -2.767791 -0.910240 0.000001 0.000000 0.000000 43.850746 -6.344236 -2.842314 42.368336 -3.142229 -1.218056 44.358472 -3.259704 -1.329188 -0.000001 -0.000002 0.000000 54.131645 -6.588002 -3.745765 51.592059 -3.652501 -1.765825 51.582641 -3.652011 -1.765241 0.000002 -0.000001 -0.000001 1.582990 1.312245 -80.985285 8.087853 5.155498 51.545032 12.007712 22.890138 12.633984 0.000027 -0.000039 -4.485872 0.000000 0.000002 0.000000 6.119290 -13.996276 -0.126637 -4.451902 -16.308888 52.445241 18.439890 -4.402396 -31.380622 -0.000001 0.000002 -42.282395 -0.000001 -0.000008 0.000000 
-0.885026 74.981392 1.715231 -6.065425 -1.912601 17.783015 -5.606768 13.789915 8.580973 -0.823529 4.253783 3.013667 -0.978076 4.478645 2.985673 4.174473 -2.368960 -0.729222 13.158400 -8.520384 -8.517759 0.000000 0.000000 0.000001 -15.123120 -0.792233 1.303528 -46.508709 16.427113 -28.838315 -0.000004 -9.634841 0.000004 17.008293 -19.321665 6.729723 3.049772 -5.780850 -6.545854 5.245545 26.237059 9.462456 10.425880 -11.624345 -11.885535 -0.000003 -0.000004 0.000000 -11.807176 -5.663043 -0.470585 -15.669943 1.585457 -0.218173 -15.374010 1.556259 -0.210059 0.000001 -0.000000 0.000002 -17.835086 -0.473130 -0.927940 -20.155291 2.022278 -0.359450 -21.413338 2.142653 -0.405152 0.000000 0.000000 0.000002 -25.171869 3.874855 -1.501140 -22.825704 2.276536 -0.459602 -23.891327 2.376598 -0.502872 -0.000002 0.000000 0.000000 -32.079815 4.668175 -2.699426 -28.278884 2.779516 -0.700316 -28.031322 2.757202 -0.688383 0.000000 -0.000001 -0.000002 -7.095671 12.751050 1.335555 -50.568663 56.960536 -60.044773 0.001082 86.421817 0.001095 -4.725599 24.584685 13.647082 -3.395589 25.595635 -14.575160 -15.792190 -41.186420 17.662183 -14.435812 0.676648 -7.331503 0.000001 -0.000003 -0.000001 13.013036 -4.621408 -0.585479 14.375388 -1.158641 -0.146118 14.370875 -1.158297 -0.146040 -0.000001 0.000000 0.000002 30.609366 -5.695740 -1.767995 31.898107 -2.464813 -0.704511 33.741121 -2.590745 -0.785786 0.000000 0.000000 0.000000 40.811424 -6.136549 -2.585142 39.269333 -2.951734 -1.053275 41.113426 -3.066164 -1.150084 -0.000001 0.000001 -0.000002 50.337182 -6.411748 -3.407424 47.816177 -3.454378 -1.531720 47.807404 -3.453883 -1.531183 0.000002 0.000000 0.000000 0.935776 0.725174 -83.164296 8.276071 4.871639 53.581578 10.924521 23.113089 11.965681 0.000026 -0.000001 -4.485880 0.000000 0.000002 0.000000 5.802403 -14.016663 -1.781059 -5.255532 -15.975730 55.368938 20.101929 -4.037238 -30.597491 0.000006 -0.000009 -44.426402 -0.000001 -0.000005 0.000000 
-2.050739 74.269058 2.337000 -4.409419 -0.930458 18.931347 -5.933151 12.874501 8.070783 -1.777751 4.337146 3.101940 -1.914208 4.550594 3.066189 3.691207 -2.424023 -0.439305 14.306225 -9.632696 -8.171991 0.000000 0.000000 0.000001 -15.886605 -0.711371 1.190160 -45.089944 16.136939 -28.728475 -0.000006 -9.128051 -0.000003 17.045513 -15.414182 5.088549 2.169743 -5.175288 -7.286344 5.059529 25.286644 9.240141 10.584150 -10.911156 -11.670514 0.000002 -0.000003 0.000001 -11.106223 -4.956301 -0.433764 -14.952150 1.514563 -0.198759 -13.864148 1.406646 -0.171023 -0.000001 -0.000002 0.000000 -16.981662 0.142513 -0.872216 -19.309105 1.940760 -0.330180 -19.720240 1.980410 -0.344255 -0.000002 -0.000002 0.000002 -24.118462 4.505600 -1.416792 -21.706468 2.170542 -0.416191 -21.786784 2.178165 -0.419233 0.000001 -0.000000 0.000003 -30.896601 5.627109 -3.249726 -26.560182 2.623526 -0.619327 -26.055784 2.577282 -0.596442 0.000002 -0.000003 0.000002 -8.995656 13.441401 0.945616 -47.269183 55.741279 -59.386795 0.000004 78.434757 0.000026 -5.297565 26.392108 12.660878 -3.454283 24.081450 -13.958636 -14.373439 -39.000545 16.325972 -14.402208 0.058066 -7.040374 0.000002 0.000001 0.000002 12.118738 -4.444935 -0.534914 13.164723 -1.062889 -0.122657 13.160529 -1.062567 -0.122576 0.000004 0.000001 0.000000 28.226882 -5.459884 -1.589508 29.209475 -2.276530 -0.593259 30.896668 -2.395310 -0.662049 -0.000001 0.000000 0.000001 37.564736 -5.899705 -2.316852 35.957903 -2.738601 -0.888870 37.645844 -2.848438 -0.971127 -0.000001 0.000000 0.000000 46.283539 -6.198950 -3.052065 43.781829 -3.226069 -1.296549 43.773529 -3.225571 -1.296112 -0.000001 0.000000 0.000001 -0.122615 0.068770 -85.326986 8.000727 4.267081 55.592910 9.764744 23.282464 10.893037 0.000025 -0.000017 -4.485864 0.000000 0.000004 0.000000 5.576814 -14.063064 -3.253742 -5.164667 -15.531221 56.988128 22.557318 -4.952590 -28.766529 -0.000003 -0.000007 -47.897750 0.000000 0.000000 -0.000001 
-3.350962 73.712021 3.335583 -2.668811 0.332200 20.437218 -6.298690 11.901847 7.519990 -2.774294 4.409315 3.159896 -2.893357 4.610424 3.115605 3.082490 -2.472380 -0.051273 15.623011 -10.957739 -7.736568 0.000000 0.000000 0.000001 -17.242820 -0.722624 1.098762 -42.938399 15.807000 -28.383752 0.000002 -9.082527 0.000007 16.716486 -11.629614 3.646600 1.238969 -4.543699 -8.072381 4.871048 24.293107 9.011778 10.752469 -10.168670 -11.442159 -0.000001 -0.000003 -0.000003 -10.372165 -4.217651 -0.395759 -14.204360 1.440447 -0.179490 -12.284182 1.249035 -0.134415 0.000000 0.000001 0.000001 -16.089896 0.787246 -0.814510 -18.427376 1.855329 -0.300972 -17.950354 1.808960 -0.285725 0.000002 0.000001 -0.000003 -23.018619 5.167152 -1.329582 -20.539547 2.059145 -0.373124 -19.585899 1.967468 -0.339621 0.000000 -0.000004 -0.000001 -29.663686 6.633391 -3.833951 -24.766228 2.458167 -0.539777 -23.992064 2.386022 -0.507066 0.000001 -0.000003 0.000003 -11.078191 14.214804 0.505098 -42.946819 54.148812 -57.797398 0.000037 70.892767 0.000052 -6.521398 28.202735 11.428413 -3.533640 22.496886 -13.322123 -13.002820 -36.687877 15.046985 -14.370216 -0.589587 -6.737175 0.000003 0.000004 0.000000 11.183651 -4.259476 -0.483107 11.898369 -0.962225 -0.100271 11.894545 -0.961932 -0.100214 -0.000001 0.000001 -0.000000 25.736507 -5.205339 -1.408571 26.397764 -2.074250 -0.486520 27.922199 -2.184580 -0.543159 0.000001 -0.000000 0.000002 34.171249 -5.636011 -2.044445 32.495209 -2.505900 -0.730402 34.020147 -2.609562 -0.798433 -0.000000 0.000002 -0.000002 42.046558 -5.949885 -2.689187 39.563680 -2.970212 -1.068478 39.556067 -2.969717 -1.068097 0.000000 0.000000 -0.000001 -1.426651 -0.573312 -87.514828 7.327768 3.454575 57.589501 8.534636 23.440463 9.490401 0.000023 -0.000035 -4.485898 0.000001 0.000006 0.000000 5.436847 -14.144602 -4.660947 -4.597215 -15.157968 57.621573 25.208065 -6.783063 -26.152140 0.000004 -0.000003 -52.091957 0.000000 0.000000 -0.000001 
-4.780468 73.328674 4.708160 -0.876426 1.695138 22.340747 -6.727625 10.880503 6.941043 -3.813684 4.521357 3.203810 -3.915208 4.710605 3.150317 2.418025 -2.522461 0.417424 17.070019 -12.459061 -7.233018 0.000000 0.000000 -0.000001 -19.217143 -0.818872 1.038561 -39.994401 15.397851 -27.799532 0.000006 -9.583569 0.000008 16.045458 -7.943526 2.470433 0.257060 -3.887757 -8.907032 4.680909 23.258045 8.777357 10.931196 -9.398910 -11.199800 -0.000001 -0.000003 0.000004 -9.605788 -3.447985 -0.356829 -13.428321 1.363273 -0.160484 -10.635538 1.083505 -0.100861 -0.000002 -0.000002 -0.000002 -15.161324 1.460790 -0.754978 -17.512405 1.766256 -0.272064 -16.105818 1.628379 -0.230400 -0.000001 0.000000 0.000000 -21.874686 5.859777 -1.239807 -19.327592 1.942542 -0.330792 -17.290870 1.744595 -0.265284 0.000000 0.000002 0.000003 -28.381034 7.687183 -4.453814 -22.900111 2.283526 -0.462579 -21.843087 2.183532 -0.421389 -0.000001 0.000003 -0.000001 -13.124712 15.053201 0.052105 -37.722772 52.009118 -55.448113 -0.000008 64.149362 0.000008 -8.430087 30.026788 10.086781 -3.633145 20.844035 -12.665138 -11.681744 -34.250928 13.829276 -14.340176 -1.265807 -6.422736 0.000003 0.000000 -0.000002 10.208821 -4.065189 -0.430259 10.577660 -0.856736 -0.079317 10.574352 -0.856479 -0.079269 0.000003 0.000000 0.000000 23.141190 -4.931703 -1.226538 23.466018 -1.857971 -0.385913 24.821085 -1.958574 -0.431041 0.000002 0.000000 0.000000 30.635182 -5.344191 -1.770315 28.885085 -2.253479 -0.580458 30.240495 -2.349359 -0.634872 0.000000 0.000000 -0.000001 37.631640 -5.662148 -2.322485 35.166376 -2.686269 -0.851412 35.159929 -2.685832 -0.851111 0.000000 0.000000 0.000001 -2.918213 -1.094535 -89.696649 6.292019 2.515539 59.536334 7.211190 23.580477 7.766756 0.000032 0.000005 -4.485933 0.000000 -0.000004 0.000000 5.372481 -14.266293 -6.079916 -3.864846 -15.004170 57.381664 27.432833 -9.346954 -22.910827 -0.000001 -0.000001 -56.371457 0.000000 -0.000003 0.000000 
-6.298110 73.104073 6.357403 0.855493 2.865421 24.528555 -7.221641 9.837676 6.359872 -4.879262 4.728111 3.261846 -4.962159 4.907310 3.199140 1.803241 -2.587073 0.921759 18.523595 -14.036521 -6.702964 0.000000 0.000000 -0.000004 -21.701178 -0.957859 1.012854 -36.389226 14.875024 -27.028452 0.000004 -10.655498 -0.000014 15.167143 -4.334521 1.609859 -0.767376 -3.215077 -9.784142 4.491861 22.193934 8.539701 11.118548 -8.612049 -10.946074 -0.000003 -0.000003 -0.000001 -8.815849 -2.656372 -0.317499 -12.634485 1.284055 -0.142159 -8.936844 0.912020 -0.071266 0.000001 0.000001 -0.000001 -14.207296 2.155886 -0.694352 -16.576830 1.674672 -0.243986 -14.208273 1.440850 -0.179573 0.000001 0.000001 0.000002 -20.701468 6.576765 -1.148643 -18.086554 1.822217 -0.290039 -14.928147 1.512182 -0.198120 -0.000001 -0.000001 0.000002 -27.065607 8.778248 -5.104600 -20.985083 2.101782 -0.389300 -19.634668 1.972177 -0.341287 0.000000 0.000000 -0.000001 -14.816481 15.899082 -0.350859 -32.023676 49.213847 -52.805966 0.000009 58.560894 0.000008 -11.013126 31.787705 8.799129 -3.752521 19.142536 -11.994801 -10.423346 -31.719029 12.686122 -14.312760 -1.962741 -6.100899 -0.000002 0.000003 -0.000001 9.205778 -3.864286 -0.377145 9.218166 -0.747651 -0.060277 9.215494 -0.747448 -0.060242 -0.000002 0.000000 0.000000 20.471647 -4.641637 -1.046596 20.448712 -1.630225 -0.294059 21.629843 -1.719946 -0.328585 0.000000 0.000000 0.000000 26.998489 -5.026589 -1.499810 25.169998 -1.984301 -0.443039 26.351457 -2.070870 -0.484848 0.000000 0.000000 0.000000 33.091358 -5.337172 -1.959779 30.641847 -2.377506 -0.651428 30.636971 -2.377146 -0.651230 0.000000 0.000000 0.000000 -4.452329 -1.338640 -91.789064 5.042753 1.576260 61.407512 5.783523 23.677776 5.799879 0.000029 0.000002 -4.485967 0.000000 0.000003 0.000000 5.360906 -14.421099 -7.524506 -3.336637 -15.202328 56.538716 28.514947 -12.079931 -19.245763 -0.000003 -0.000012 -59.776484 0.000000 0.000002 0.000002 
